<?xml version="1.0" encoding="UTF-8"?>
<svg xmlns="http://www.w3.org/2000/svg" version="1.1" viewBox="0 0 373.2 373.2">
  <!-- Generator: Adobe Illustrator 30.1.0, SVG Export Plug-In . SVG Version: 2.1.1 Build 136)  -->
  <defs>
    <style>
      .st0, .st1 {
        fill: #777;
      }

      .st1, .st2 {
        display: none;
      }
    </style>
  </defs>
  <g id="Layer_1" class="st2">
    <g id="Layer_7" class="st2">
      <rect y="0" width="373.2" height="373.2"/>
    </g>
    <g id="about">
      <path class="st0" d="M169.6,111.7v-34.3h33.9v34.3h-33.9ZM172.8,295.8v-154.5h28v154.5h-28Z"/>
      <path class="st1" d="M186.6,30c41.8,0,81.2,16.3,110.7,45.9,29.6,29.6,45.9,68.9,45.9,110.7s-16.3,81.2-45.9,110.7c-29.6,29.6-68.9,45.9-110.7,45.9s-81.2-16.3-110.7-45.9c-29.6-29.6-45.9-68.9-45.9-110.7s16.3-81.2,45.9-110.7c29.6-29.6,68.9-45.9,110.7-45.9M186.6,0C83.6,0,0,83.6,0,186.6s83.6,186.6,186.6,186.6,186.6-83.6,186.6-186.6S289.7,0,186.6,0h0Z"/>
    </g>
    <path class="st0" d="M186.6,25c43.2,0,83.7,16.8,114.3,47.3,30.5,30.5,47.3,71.1,47.3,114.3s-16.8,83.7-47.3,114.3c-30.5,30.5-71.1,47.3-114.3,47.3s-83.7-16.8-114.3-47.3c-30.5-30.5-47.3-71.1-47.3-114.3s16.8-83.7,47.3-114.3c30.5-30.5,71.1-47.3,114.3-47.3M186.6,0C83.5,0,0,83.5,0,186.6s83.5,186.6,186.6,186.6,186.6-83.5,186.6-186.6S289.7,0,186.6,0h0Z"/>
  </g>
  <g id="Layer_2">
    <g id="Layer_71" data-name="Layer_7" class="st2">
      <rect y="0" width="373.2" height="373.2"/>
    </g>
    <g id="about1" data-name="about">
      <path class="st0" d="M186.6,25c43.2,0,83.7,16.8,114.3,47.3,30.5,30.5,47.3,71.1,47.3,114.3s-16.8,83.7-47.3,114.2c-30.5,30.5-71.1,47.4-114.3,47.4s-83.8-16.8-114.3-47.4c-30.5-30.5-47.3-71.1-47.3-114.2s16.8-83.7,47.3-114.3c30.5-30.5,71.1-47.3,114.3-47.3M186.6,0C83.5,0,0,83.5,0,186.6s20.9,98.1,54.6,131.9c33.8,33.8,80.4,54.7,132,54.7s98.2-20.9,132-54.7c33.7-33.8,54.6-80.4,54.6-131.9C373.2,83.5,289.7,0,186.6,0h0Z"/>
      <path class="st0" d="M186.6,219.4c4.1,0,8.1.2,12.1.6,8.2.9,16.2,2.6,23.9,5.2,38.8,13,67.3,46.2,74.8,85.9-30.5,27.2-69.5,42.1-110.7,42.1s-80.2-14.9-110.7-42.1c7.5-39.7,36-72.8,74.8-85.9,7.8-2.6,16-4.4,24.2-5.3,3.9-.4,7.8-.6,11.7-.6M186.6,199.4c-4.7,0-9.3.2-13.8.7-9.9,1-19.4,3.1-28.6,6.2-48.4,16.3-84.3,59.7-89.6,112.2,33.8,33.8,80.4,54.7,132,54.7s98.2-20.9,132-54.7c-5.3-52.5-41.2-95.9-89.6-112.2-9-3-18.4-5.1-28.2-6.2-4.7-.5-9.4-.8-14.2-.8h0Z"/>
      <path class="st0" d="M186.6,87.2c30.9,0,56,25.1,56,56s-25.1,56-56,56-56-25.1-56-56,25.1-56,56-56M186.6,67.2c-42,0-76,34-76,76s34,76,76,76,76-34,76-76-34-76-76-76h0Z"/>
    </g>
  </g>
</svg>