<?xml version="1.0" encoding="UTF-8"?>
<svg id="Layer_1" xmlns="http://www.w3.org/2000/svg" version="1.1" viewBox="0 0 373.2 373.2">
  <!-- Generator: Adobe Illustrator 30.1.0, SVG Export Plug-In . SVG Version: 2.1.1 Build 136)  -->
  <defs>
    <style>
      .st0 {
        fill: #cb132c;
      }

      .st1 {
        display: none;
      }
    </style>
  </defs>
  <g id="Layer_7" class="st1">
    <rect y="0" width="373.2" height="373.2"/>
  </g>
  <g id="about">
    <path class="st0" d="M186.6,0C83.5,0,0,83.5,0,186.6s20.9,98.1,54.6,131.9c33.8,33.8,80.4,54.7,132,54.7s98.2-20.9,132-54.7c33.7-33.8,54.6-80.4,54.6-131.9C373.2,83.5,289.7,0,186.6,0ZM186.6,348.2c-41,0-79.6-15.1-109.5-42.8,9-37.2,36.6-67.8,73.5-80.2,7.8-2.6,16-4.4,24.2-5.2,3.9-.4,7.8-.6,11.7-.6s8.1.2,12.1.6c8.2.9,16.2,2.6,23.9,5.2,36.9,12.4,64.5,43,73.5,80.2-29.9,27.6-68.6,42.8-109.5,42.8ZM186.6,199.2c-30.9,0-56-25.1-56-56s25.1-56,56-56,56,25.1,56,56-25.1,56-56,56ZM312,288.6c-13.4-38.7-44.2-69.2-83-82.3,20.3-13.6,33.6-36.8,33.6-63.1,0-42-34-76-76-76s-76,34-76,76,13.4,49.5,33.6,63.1c-38.8,13.1-69.6,43.6-83,82.3-23.5-28.7-36.2-64.4-36.2-102s16.8-83.8,47.3-114.3c30.5-30.5,71.1-47.3,114.3-47.3s83.8,16.8,114.3,47.3c30.5,30.5,47.3,71.1,47.3,114.3s-12.8,73.2-36.2,102Z"/>
  </g>
</svg>