<?xml version="1.0" encoding="UTF-8"?>
<svg id="Layer_1" xmlns="http://www.w3.org/2000/svg" version="1.1" viewBox="0 0 373.2 373.2">
  <!-- Generator: Adobe Illustrator 30.1.0, SVG Export Plug-In . SVG Version: 2.1.1 Build 136)  -->
  <defs>
    <style>
      .st0 {
        fill: #777;
      }

      .st1 {
        display: none;
      }
    </style>
  </defs>
  <g id="Layer_7" class="st1">
    <rect y="0" width="373.2" height="373.2"/>
  </g>
  <g id="about">
    <path class="st0" d="M169.6,111.7v-34.3h33.9v34.3h-33.9ZM172.8,295.8v-154.5h28v154.5h-28Z"/>
    <path class="st0" d="M186.6,30c41.8,0,81.2,16.3,110.7,45.9,29.6,29.6,45.9,68.9,45.9,110.7s-16.3,81.2-45.9,110.7c-29.6,29.6-68.9,45.9-110.7,45.9s-81.2-16.3-110.7-45.9c-29.6-29.6-45.9-68.9-45.9-110.7s16.3-81.2,45.9-110.7c29.6-29.6,68.9-45.9,110.7-45.9M186.6,0C83.6,0,0,83.6,0,186.6s83.6,186.6,186.6,186.6,186.6-83.6,186.6-186.6S289.7,0,186.6,0h0Z"/>
  </g>
</svg>