<?xml version="1.0" encoding="UTF-8"?>
<svg xmlns="http://www.w3.org/2000/svg" version="1.1" viewBox="0 0 373.2 373.2">
  <!-- Generator: Adobe Illustrator 30.1.0, SVG Export Plug-In . SVG Version: 2.1.1 Build 136)  -->
  <g id="Layer_1">
    <g id="Layer_7" display="none">
      <rect y="0" width="373.2" height="373.2"/>
    </g>
    <g id="about">
      <path d="M186.6,25c43.17,0,83.75,16.81,114.27,47.33,30.52,30.52,47.33,71.1,47.33,114.27s-16.79,83.71-47.28,114.23c-30.53,30.55-71.13,47.37-114.32,47.37s-83.79-16.82-114.31-47.37c-30.49-30.52-47.29-71.09-47.29-114.23s16.81-83.75,47.33-114.27c30.52-30.52,71.1-47.33,114.27-47.33M186.6,0C83.54,0,0,83.54,0,186.6,0,238.1,20.86,284.73,54.6,318.5c33.77,33.79,80.44,54.7,132,54.7s98.23-20.91,132-54.7c33.74-33.77,54.6-80.4,54.6-131.9C373.2,83.54,289.66,0,186.6,0h0Z" fill="#cb132c"/>
      <path d="M186.6,219.38c4.07,0,8.13.21,12.07.64,8.17.87,16.21,2.63,23.9,5.22,38.77,13.05,67.28,46.16,74.77,85.85-30.54,27.23-69.49,42.11-110.74,42.11s-80.2-14.88-110.74-42.11c7.48-39.69,36-72.8,74.77-85.85,7.82-2.63,15.97-4.4,24.23-5.25,3.87-.4,7.82-.6,11.74-.6M186.6,199.38c-4.66,0-9.26.24-13.8.71-9.88,1.02-19.43,3.12-28.55,6.19-48.4,16.29-84.32,59.74-89.65,112.22,33.77,33.79,80.44,54.7,132,54.7s98.23-20.91,132-54.7c-5.33-52.48-41.25-95.93-89.65-112.22-8.99-3.03-18.42-5.11-28.15-6.15-4.67-.5-9.4-.75-14.2-.75h0Z" fill="#cb132c"/>
      <path d="M186.6,87.2c30.87,0,55.99,25.12,55.99,55.99s-25.12,55.99-55.99,55.99-55.99-25.12-55.99-55.99,25.12-55.99,55.99-55.99M186.6,67.2c-41.97,0-75.99,34.02-75.99,75.99s34.02,75.99,75.99,75.99,75.99-34.02,75.99-75.99-34.02-75.99-75.99-75.99h0Z" fill="#cb132c"/>
    </g>
  </g>
  <g id="Layer_2" display="none">
    <path d="M186.6,25c43.16,0,83.75,16.81,114.27,47.33,30.52,30.52,47.33,71.1,47.33,114.27s-16.81,83.75-47.33,114.27c-30.52,30.52-71.1,47.33-114.27,47.33s-83.75-16.81-114.27-47.33c-30.52-30.52-47.33-71.1-47.33-114.27s16.81-83.75,47.33-114.27c30.52-30.52,71.1-47.33,114.27-47.33M186.6,0C83.54,0,0,83.54,0,186.6s83.54,186.6,186.6,186.6,186.6-83.54,186.6-186.6S289.66,0,186.6,0h0Z" fill="#cb132c"/>
    <path d="M186.6,219.38c30.1,0,58.4,11.72,79.68,33,21.28,21.28,33,49.58,33,79.68s-11.72,58.4-33,79.68c-21.28,21.28-49.58,33-79.68,33s-58.4-11.72-79.68-33c-21.28-21.28-33-49.58-33-79.68s11.72-58.4,33-79.68c21.28-21.28,49.58-33,79.68-33M186.6,199.38c-73.28,0-132.69,59.41-132.69,132.69s59.41,132.69,132.69,132.69,132.69-59.41,132.69-132.69-59.41-132.69-132.69-132.69h0Z" fill="#cb132c"/>
    <path d="M186.6,87.2c30.87,0,55.99,25.12,55.99,55.99s-25.12,55.99-55.99,55.99-55.99-25.12-55.99-55.99,25.12-55.99,55.99-55.99M186.6,67.2c-41.97,0-75.99,34.02-75.99,75.99s34.02,75.99,75.99,75.99,75.99-34.02,75.99-75.99-34.02-75.99-75.99-75.99h0Z" fill="#cb132c"/>
  </g>
</svg>