<?xml version="1.0" encoding="UTF-8"?>
<svg xmlns="http://www.w3.org/2000/svg" xmlns:xlink="http://www.w3.org/1999/xlink" version="1.1" viewBox="0 0 373.2 373.2">
  <!-- Generator: Adobe Illustrator 30.1.0, SVG Export Plug-In . SVG Version: 2.1.1 Build 136)  -->
  <defs>
    <style>
      .st0, .st1, .st2, .st3 {
        fill: none;
      }

      .st1 {
        stroke-width: 16.9px;
      }

      .st1, .st2, .st3 {
        stroke: #cb132c;
        stroke-miterlimit: 10;
      }

      .st2 {
        stroke-width: 30px;
      }

      .st4 {
        fill: #cb132c;
      }

      .st3 {
        stroke-width: 60px;
      }

      .st5 {
        fill: #fff;
      }

      .st6 {
        display: none;
      }

      .st7 {
        clip-path: url(#clippath);
      }
    </style>
    <clipPath id="clippath">
      <rect class="st0" width="373.2" height="373.2"/>
    </clipPath>
  </defs>
  <g id="plus" class="st6">
    <rect class="st4" x="168.6" width="36" height="373.2"/>
    <rect class="st4" y="168.6" width="373.2" height="36"/>
  </g>
  <g id="Layer_7" class="st6">
    <rect width="373.2" height="373.2"/>
  </g>
  <g id="question" class="st6">
    <path class="st4" d="M146.3,274.7v-29.4c0-10.8.6-19.6,1.8-26.2,1.2-6.6,4.2-12.2,8.9-16.8,4.7-4.5,12-8.9,21.8-13.1l18.9-8.4c11.5-5.2,21.8-11,30.9-17.3,9.1-6.3,16.1-14.1,21-23.3,4.9-9.3,7.3-20.2,7.3-32.8,0-21-6.5-37.5-19.4-49.5-12.9-12.1-30.1-18.1-51.4-18.1s-38.8,5.9-51.4,17.6c-12.6,11.7-18.9,27.7-18.9,48h-45.1c0-21,4.8-39.3,14.4-55,9.6-15.7,23.1-28,40.4-37C142.8,4.5,163,0,186.1,0s42.8,4.4,60.3,13.1c17.5,8.7,31.2,21.1,41.2,37.2,10,16.1,14.9,35.1,14.9,57.1s-6.7,45.8-20.2,62.9c-13.5,17.1-31,30.8-52.7,40.9l-24.1,11.5c-6.6,3.1-10.9,6.3-12.8,9.4-1.9,3.1-2.9,8.6-2.9,16.3v26.2h-43.5ZM136.8,373.2v-62.4h64v62.4h-64Z"/>
  </g>
  <g id="about" class="st6">
    <path class="st4" d="M169.6,111.7v-34.3h33.9v34.3h-33.9ZM172.8,295.8v-154.5h28v154.5h-28Z"/>
    <path class="st4" d="M186.6,30c41.8,0,81.2,16.3,110.7,45.9,29.6,29.6,45.9,68.9,45.9,110.7s-16.3,81.2-45.9,110.7c-29.6,29.6-68.9,45.9-110.7,45.9s-81.2-16.3-110.7-45.9c-29.6-29.6-45.9-68.9-45.9-110.7s16.3-81.2,45.9-110.7c29.6-29.6,68.9-45.9,110.7-45.9M186.6,0C83.6,0,0,83.6,0,186.6s83.6,186.6,186.6,186.6,186.6-83.6,186.6-186.6S289.7,0,186.6,0h0Z"/>
  </g>
  <g id="gallery" class="st6">
    <g class="st6">
      <path class="st5" d="M343.2,30v313.2H30V30h313.2M373.2,0H0v373.2h373.2V0h0Z"/>
    </g>
    <polyline class="st2" points="54.4 306.4 122 230.4 168.4 282.3 277.3 157.4 349.6 238.1"/>
    <circle class="st4" cx="116.6" cy="130" r="32"/>
    <path class="st4" d="M186.6,31c41.6,0,80.7,16.2,110.1,45.6,29.4,29.4,45.6,68.5,45.6,110.1s-16.2,80.7-45.6,110.1c-29.4,29.4-68.5,45.6-110.1,45.6s-80.7-16.2-110.1-45.6-45.6-68.5-45.6-110.1,16.2-80.7,45.6-110.1c29.4-29.4,68.5-45.6,110.1-45.6M186.6,0C83.6,0,0,83.6,0,186.6s83.6,186.6,186.6,186.6,186.6-83.6,186.6-186.6S289.7,0,186.6,0h0Z"/>
  </g>
  <g id="message">
    <line class="st1" x1="87.6" y1="150.6" x2="285.7" y2="150.6"/>
    <line class="st1" x1="87.6" y1="222.7" x2="285.7" y2="222.7"/>
    <path class="st4" d="M186.6,30c41.8,0,81.2,16.3,110.7,45.9,29.6,29.6,45.9,68.9,45.9,110.7s-16.3,81.2-45.9,110.7c-29.6,29.6-68.9,45.9-110.7,45.9s-42.5-4.3-62.1-12.8l-7.7-3.3-8.3,1.1-49.6,6.7,8.4-13.5,12-19.4-15.5-16.8c-24.1-26-33.9-54.5-33.9-98.6s16.3-81.2,45.9-110.7c29.6-29.6,68.9-45.9,110.7-45.9M186.6,0C83.5,0,0,83.5,0,186.6s11,85.7,41.9,119L0,373.2l112.6-15.3c22.7,9.8,47.7,15.3,74,15.3,103.1,0,186.6-83.6,186.6-186.6S289.7,0,186.6,0h0Z"/>
  </g>
  <g id="carrot" class="st6">
    <g class="st7">
      <polyline class="st3" points="30.1 17.6 186.6 300.8 346.2 17.6"/>
    </g>
  </g>
</svg>