<?xml version="1.0" encoding="UTF-8"?>
<svg xmlns="http://www.w3.org/2000/svg" version="1.1" viewBox="0 0 373.2 373.2">
  <!-- Generator: Adobe Illustrator 30.1.0, SVG Export Plug-In . SVG Version: 2.1.1 Build 136)  -->
  <g id="Layer_2">
    <path d="M186.6,0C83.5,0,0,83.5,0,186.6s17.5,90.4,46.5,123.2L0,373.2l119.1-12.6c20.9,8.1,43.7,12.6,67.5,12.6,103.1,0,186.6-83.5,186.6-186.6S289.7,0,186.6,0ZM300.9,300.9c-30.5,30.5-71.1,47.3-114.3,47.3s-34.2-2.7-50.2-7.9c-4.7-1.5-9.3-3.3-13.8-5.2l-42.8,4.5-24,2.5,9.5-13.8,14.2-20.8c-2.4-2.2-4.8-4.4-7.1-6.7-3.8-3.8-7.3-7.7-10.7-11.7-23.8-28.8-36.7-64.7-36.7-102.5s16.8-83.8,47.3-114.3c30.5-30.5,71.1-47.3,114.3-47.3s83.8,16.8,114.3,47.3,47.3,71.1,47.3,114.3-16.8,83.8-47.3,114.3h0Z" display="none" fill="#cb132c"/>
  </g>
  <g id="Layer_3" display="none">
    <path d="M186.6,25c43.16,0,83.75,16.81,114.27,47.33,30.52,30.52,47.33,71.1,47.33,114.27s-16.81,83.75-47.33,114.27c-30.52,30.52-71.1,47.33-114.27,47.33s-83.75-16.81-114.27-47.33c-30.52-30.52-47.33-71.1-47.33-114.27s16.81-83.75,47.33-114.27c30.52-30.52,71.1-47.33,114.27-47.33M186.6,0C83.54,0,0,83.54,0,186.6s83.54,186.6,186.6,186.6,186.6-83.54,186.6-186.6S289.66,0,186.6,0h0Z" fill="#cb132c"/>
    <polyline points="60.9 305.8 27.23 355.98 109.98 342.91" fill="none" stroke="#cb132c" stroke-miterlimit="10" stroke-width="25"/>
    <line x1="87.5" y1="222.7" x2="285.7" y2="222.7" fill="none" stroke="#cb132c" stroke-miterlimit="10" stroke-width="20"/>
    <line x1="87.5" y1="150.6" x2="285.7" y2="150.6" fill="none" stroke="#cb132c" stroke-miterlimit="10" stroke-width="20"/>
  </g>
  <g id="Layer_4">
    <path d="M186.6,0C83.54,0,0,83.54,0,186.6c0,46.2,16.79,88.48,44.6,121.07L.89,372.79l107.1-16.91c23.89,11.12,50.53,17.32,78.61,17.32,103.06,0,186.6-83.54,186.6-186.6S289.66,0,186.6,0ZM300.87,300.87c-30.52,30.52-71.11,47.33-114.27,47.33-7.17,0-14.27-.46-21.26-1.38-18.81-2.45-36.86-8.17-53.48-16.86l-37.29,5.88-21.01,3.32,8.89-13.24,14.09-20.99c-1.43-1.32-2.83-2.68-4.21-4.06-4.73-4.73-9.12-9.69-13.18-14.88-22.14-28.27-34.15-62.91-34.15-99.39,0-43.16,16.81-83.75,47.33-114.27,30.52-30.52,71.11-47.33,114.27-47.33s83.75,16.81,114.27,47.33c30.52,30.52,47.33,71.11,47.33,114.27s-16.81,83.75-47.33,114.27Z" fill="#777"/>
    <line x1="87.5" y1="222.7" x2="285.7" y2="222.7" fill="none" stroke="#777" stroke-miterlimit="10" stroke-width="20"/>
    <line x1="87.5" y1="150.6" x2="285.7" y2="150.6" fill="none" stroke="#777" stroke-miterlimit="10" stroke-width="20"/>
  </g>
</svg>