<?xml version="1.0" encoding="UTF-8"?>
<svg xmlns="http://www.w3.org/2000/svg" version="1.1" viewBox="0 0 373.2 373.2">
  <!-- Generator: Adobe Illustrator 30.1.0, SVG Export Plug-In . SVG Version: 2.1.1 Build 136)  -->
  <defs>
    <style>
      .st0 {
        fill: #777;
      }

      .st1 {
        display: none;
      }
    </style>
  </defs>
  <g id="Layer_1">
    <g id="Layer_7" class="st1">
      <rect y="0" width="373.2" height="373.2"/>
    </g>
    <g id="about">
      <path class="st0" d="M186.6,30c41.8,0,81.2,16.3,110.7,45.9,29.6,29.6,45.9,68.9,45.9,110.7s-16.3,81.2-45.9,110.7c-29.6,29.6-68.9,45.9-110.7,45.9s-81.2-16.3-110.7-45.9c-29.6-29.6-45.9-68.9-45.9-110.7s16.3-81.2,45.9-110.7c29.6-29.6,68.9-45.9,110.7-45.9M186.6,0C83.6,0,0,83.6,0,186.6s83.6,186.6,186.6,186.6,186.6-83.6,186.6-186.6S289.7,0,186.6,0h0Z"/>
    </g>
    <g id="hzfysO.tif">
      <path class="st0" d="M98.6,91.9l52.9,20.3,35.1,35.1,50.8-50.7c2.9-2.9,6.3-3.9,9.9-4.7h3.7c3.9.8,7.3,2.4,10.2,5.3l15.3,15.3c2.8,2.8,3.9,6.1,4.8,9.7v4.1c-.9,3.7-2.2,7-5.1,9.9l-50.4,50.4,50.5,50.6c2.8,2.8,4,6.1,4.9,9.7v4.1c-.8,3.5-2,6.8-4.6,9.5l-16.2,16.2c-6.6,6-16.6,6.4-23-.1l-50.8-50.7-50.6,50.5c-6.6,6.5-16.6,6.4-23.3.3l-16.1-16.2c-6.3-6.3-6.3-16.6,0-23l50.7-50.8-35.1-35.2-19.7-51.4c-1.4-3.6.3-6.5,3.5-8h2.6ZM210,139.8l11.7,11.7c2.3,2.3,2.1,5.9-.2,8s-5.6,1.9-7.8-.3l-11.6-11.6-7.6,7.6,23.5,23.5,50.6-50.6c2.1-2.1,2.1-5.6,0-7.7l-15.7-15.7c-2.2-2.2-5.7-2.3-7.8-.1l-3.8,3.8,11.7,11.7c2.2,2.2,2.1,5.6,0,7.8s-5.5,2.4-7.7.2l-11.9-11.9-7.8,7.8,3.9,4c2.2,2.2,2,5.8-.2,7.8s-5.6,2-7.8-.2l-3.8-3.8-7.8,7.9ZM138.4,119.1l-31.1-11.9,11.9,31.1,19.2-19.3ZM148.4,124.8l-7.8,7.8,104.4,104.4,7.8-7.8-104.4-104.4ZM132.7,140.5l-7.8,7.8,104.4,104.4,7.8-7.8-104.4-104.4ZM115.8,233.9l11.7,11.7c2.3,2.3,2,5.8,0,7.8s-5.6,2.2-7.8,0l-11.7-11.7-3.2,3.1c-2.4,2.4-2.2,5.9.1,8.2l15.3,15.3c2.3,2.3,5.7,2.3,8.1,0l50.4-50.4-23.5-23.5-8.1,8.1,11.7,11.8c2.2,2.2,2,5.6.2,7.6s-5.7,2.6-7.9.4l-12-11.9-7.8,7.8,4,4c2.2,2.3,2,5.8-.2,7.8s-5.6,2-7.8-.2l-3.8-3.8-7.8,7.9ZM252.9,268.5l15.6-15.6c2.3-2.3,2.3-5.8,0-8l-7.9-7.8-23.5,23.5,8,8c2.1,2.1,5.5,2,7.7,0Z"/>
    </g>
  </g>
  <g id="Layer_2" class="st1">
    <circle class="st0" cx="186.8" cy="96" r="23"/>
    <circle class="st0" cx="186.6" cy="186.6" r="23"/>
    <circle class="st0" cx="186.6" cy="277.2" r="23"/>
  </g>
</svg>