<?xml version="1.0" encoding="UTF-8"?>
<svg id="Layer_1" xmlns="http://www.w3.org/2000/svg" version="1.1" viewBox="0 0 373.2 373.2">
  <!-- Generator: Adobe Illustrator 30.1.0, SVG Export Plug-In . SVG Version: 2.1.1 Build 136)  -->
  <defs>
    <style>
      .st0, .st1 {
        fill: #777;
      }

      .st1, .st2 {
        display: none;
      }
    </style>
  </defs>
  <g id="Layer_11" data-name="Layer_1">
    <g id="Layer_7" class="st2">
      <rect y="0" width="373.2" height="373.2"/>
    </g>
  </g>
  <path class="st1" d="M186.6,30c41.8,0,81.2,16.3,110.7,45.9,29.6,29.6,45.9,68.9,45.9,110.7s-16.3,81.2-45.9,110.7c-29.6,29.6-68.9,45.9-110.7,45.9s-81.2-16.3-110.7-45.9c-29.6-29.6-45.9-68.9-45.9-110.7s16.3-81.2,45.9-110.7c29.6-29.6,68.9-45.9,110.7-45.9M186.6,0C83.6,0,0,83.6,0,186.6s83.6,186.6,186.6,186.6,186.6-83.6,186.6-186.6S289.7,0,186.6,0h0Z"/>
  <path class="st1" d="M98.6,91.9l52.9,20.3,35.1,35.1,50.8-50.7c2.9-2.9,6.3-3.9,9.9-4.7h3.7c3.9.8,7.3,2.4,10.2,5.3l15.3,15.3c2.8,2.8,3.9,6.1,4.8,9.7v4.1c-.9,3.7-2.2,7-5.1,9.9l-50.4,50.4,50.5,50.6c2.8,2.8,4,6.1,4.9,9.7v4.1c-.8,3.5-2,6.8-4.6,9.5l-16.2,16.2c-6.6,6-16.6,6.4-23-.1l-50.8-50.7-50.6,50.5c-6.6,6.5-16.6,6.4-23.3.3l-16.1-16.2c-6.3-6.3-6.3-16.6,0-23l50.7-50.8-35.1-35.2-19.7-51.4c-1.4-3.6.3-6.5,3.5-8h2.6v-.2ZM210,139.8l11.7,11.7c2.3,2.3,2.1,5.9-.2,8s-5.6,1.9-7.8-.3l-11.6-11.6-7.6,7.6,23.5,23.5,50.6-50.6c2.1-2.1,2.1-5.6,0-7.7l-15.7-15.7c-2.2-2.2-5.7-2.3-7.8,0l-3.8,3.8,11.7,11.7c2.2,2.2,2.1,5.6,0,7.8s-5.5,2.4-7.7.2l-11.9-11.9-7.8,7.8,3.9,4c2.2,2.2,2,5.8-.2,7.8s-5.6,2-7.8-.2l-3.8-3.8-7.8,7.9h.1ZM138.4,119.1l-31.1-11.9,11.9,31.1,19.2-19.3h0ZM148.4,124.8l-7.8,7.8,104.4,104.4,7.8-7.8s-104.4-104.4-104.4-104.4ZM132.7,140.5l-7.8,7.8,104.4,104.4,7.8-7.8-104.4-104.4h0ZM115.8,233.9l11.7,11.7c2.3,2.3,2,5.8,0,7.8s-5.6,2.2-7.8,0l-11.7-11.7-3.2,3.1c-2.4,2.4-2.2,5.9,0,8.2l15.3,15.3c2.3,2.3,5.7,2.3,8.1,0l50.4-50.4-23.5-23.5-8.1,8.1,11.7,11.8c2.2,2.2,2,5.6.2,7.6s-5.7,2.6-7.9.4l-12-11.9-7.8,7.8,4,4c2.2,2.3,2,5.8-.2,7.8s-5.6,2-7.8-.2l-3.8-3.8-7.8,7.9h.1ZM252.9,268.5l15.6-15.6c2.3-2.3,2.3-5.8,0-8l-7.9-7.8-23.5,23.5,8,8c2.1,2.1,5.5,2,7.7,0h0Z"/>
  <g id="Layer_2" class="st2">
    <circle class="st0" cx="186.8" cy="96" r="23"/>
    <circle class="st0" cx="186.6" cy="186.6" r="23"/>
    <circle class="st0" cx="186.6" cy="277.2" r="23"/>
  </g>
  <g id="lQ4zYo" class="st2">
    <g>
      <path class="st0" d="M266.1,137l-9.6,9.6-17.2-17.2c-3.4-3.4-8.7-3.4-11.9,0s-2.8,8.6.6,12l16.9,16.8-35.8,35.8c-3.3,3.3-3.2,8.5,0,11.7,3.2,3.2,8.4,3.2,11.6,0l8.5-8.5,5.4,5.4-2.4,2.4c-3.3,3.3-3.2,8.5,0,11.6,3.2,3.2,8.3,3.1,11.6-.1l2.3-2.3,10.2,10.2-2.4,2.4c-3.2,3.3-3.1,8.5,0,11.6s8.4,3.1,11.7-.2l2.3-2.3,5.5,5.4c1.1,1.1,1.3,2.8,0,4l-27.9,27.9c-1,1-2.8,1.7-4,.4l-34.8-34.8c-3.3-3.3-8.4-3.3-11.7-.1s-3.4,8.3-.1,11.5l35.1,35.1c7.4,7.3,19.4,7.1,26.7-.2l28.4-28.4c7.3-7.3,7.3-19.4,0-26.7l-44.5-44.6,37-37c12.2-12.2,15.6-31.5,7.1-46.7-5.7-10.2-15.8-17-26.8-18.9s-24.7,1.8-33.4,10.5l-38,38-43.5-43.5c-7.4-7.4-19.4-7.5-26.8-.1l-28.6,28.6c-7.4,7.4-7.2,19.5.1,26.8l30.6,30.6c3.3,3.3,8.6,3,11.6-.2s3-8.3-.3-11.6l-30.3-30.3c-1.2-1.2-1.2-2.8,0-4l28-28c1.1-1.1,2.8-1.4,4-.2l4.7,4.7-2.4,2.4c-3.2,3.3-3.1,8.5,0,11.6s8.3,3.1,11.5,0l2.4-2.4,10.2,10.2-2.2,2.2c-3.3,3.4-3.5,8.6-.2,11.9,3.3,3.2,8.4,3,11.8-.3l2.2-2.2,5.3,5.4-69.9,69.8c-3,3-5.4,6.5-6.6,10.7l-13.2,46.3c-1.4,4.9,0,10,3.5,13.5,3.5,3.4,8.5,4.8,13.3,3.4l46-13.1c4.2-1.2,7.8-3.5,10.8-6.5l38.6-38.6c3.3-3.3,3.6-8.5.3-11.8-3.1-3.2-8.3-3.3-11.6,0l-39.1,39.1c-1.1,1.1-2.3,1.8-3.8,2.2l-41,11.7,11.8-41.2c.4-1.3,1-2.5,2-3.4l120.3-120.3c8.2-8.2,21.6-8.1,29.9-.4,9.7,9,8.5,23.7-.3,32.5Z"/>
      <path class="st0" d="M266.1,137c8.8-8.8,10-23.5.3-32.5-8.3-7.7-21.7-7.8-29.9.4l-120.3,120.3c-1,1-1.6,2.1-2,3.4l-11.8,41.2,41-11.7c1.5-.4,2.7-1.1,3.8-2.2l39.1-39.1c3.3-3.3,8.5-3.2,11.6,0,3.3,3.4,3.1,8.5-.3,11.8l-38.6,38.6c-3.1,3.1-6.6,5.3-10.8,6.5l-46,13.1c-4.9,1.4-9.9,0-13.3-3.4-3.5-3.5-4.9-8.6-3.5-13.5l13.2-46.3c1.2-4.2,3.6-7.7,6.6-10.7l69.9-69.8-5.3-5.4-2.2,2.2c-3.3,3.3-8.5,3.5-11.8.3-3.3-3.3-3.2-8.5.2-11.9l2.2-2.2-10.2-10.2-2.4,2.4c-3.3,3.2-8.3,3.2-11.5,0s-3.3-8.3,0-11.6l2.4-2.4-4.7-4.7c-1.2-1.2-2.9-1-4,.2l-28,28c-1.2,1.2-1.1,2.8,0,4l30.3,30.3c3.2,3.2,3.4,8.3.3,11.6s-8.4,3.5-11.6.2l-30.6-30.6c-7.4-7.4-7.6-19.4-.1-26.8l28.6-28.6c7.4-7.4,19.5-7.2,26.8.1l43.5,43.5,38-38c8.7-8.7,21-12.6,33.4-10.5s21.1,8.7,26.8,18.9c8.5,15.2,5.1,34.5-7.1,46.7l-37,37,44.5,44.6c7.3,7.3,7.3,19.4,0,26.7l-28.4,28.4c-7.3,7.3-19.3,7.5-26.7.2l-35.1-35.1c-3.2-3.2-3-8.5.1-11.5s8.4-3.1,11.7.1l34.8,34.8c1.2,1.2,2.9.6,4-.4l27.9-27.9c1.2-1.2,1.1-2.9,0-4l-5.5-5.4-2.3,2.3c-3.3,3.3-8.4,3.4-11.7.2s-3.3-8.3,0-11.6l2.4-2.4-10.2-10.2-2.3,2.3c-3.3,3.2-8.4,3.3-11.6.1-3.2-3.2-3.3-8.4,0-11.6l2.4-2.4-5.4-5.4-8.5,8.5c-3.2,3.2-8.4,3.2-11.6,0-3.2-3.2-3.3-8.4,0-11.7l35.8-35.8-16.9-16.8c-3.4-3.4-3.9-8.5-.6-12s8.5-3.4,11.9,0l17.2,17.2,9.6-9.6Z"/>
    </g>
  </g>
  <path class="st1" d="M198.3,0c.7.5,2.1.5,3.7.6,57.4,4.1,112.8,32.3,145.1,80.7,17.8,26.7,27.5,58.4,25.8,90.2-2.9,54.6-48,97.6-102.6,97.8h-37c-12.4.2-23.1,7.1-28.1,17.4-5.5,11.5-3.9,24.6,4.4,34.2,8.5,9.9,10.5,23.1,4.8,34.8-5.4,11-17.1,18.1-30,17.4l-11.3-.6C80.6,367.4,5.3,288.8.1,197.5v-21.9c.3-1.4.5-2.8.6-4.1C7.9,80.5,80.7,7.8,171.7.6c1.5-.1,2.9-.2,4.1-.6h22.6ZM165.8,72.5c0-17.1-13.9-31-31-31s-31,13.9-31,31,13.9,31,31,31,31-13.9,31-31ZM269.5,72.5c0-17.1-13.9-31-31-31s-31,13.9-31,31,13.9,31,31,31,31-13.9,31-31ZM103.6,155.4c0-17.1-13.9-31-31-31s-31,13.9-31,31,13.9,31,31,31,31-13.9,31-31ZM331.6,155.4c0-17.1-13.9-31-31-31s-31,13.9-31,31,13.9,31,31,31,31-13.9,31-31Z"/>
  <path class="st0" d="M195,25c2,.4,3.6.5,4.8.5h.4c52.3,3.8,99.5,29.8,126.1,69.7,15.3,22.9,23,49.6,21.6,75-2.2,41.4-36.4,74-77.7,74.2h-37c-10.6.2-21,3.1-29.9,8.7-8.9,5.6-16,13.5-20.6,22.8-4.8,10-6.7,21-5.3,31.9,1.4,10.9,6,21.2,13.3,29.6,2.1,2.4,2.5,4.9,1.3,7.5-1,2-3.3,3.4-5.7,3.4s-.3,0-.4,0l-11.3-.6c-38.2-2.1-74.7-19.1-102.8-47.7-27.7-28.3-44.3-64.9-46.6-103.1v-18.7c.3-1.5.4-3,.6-4.5,3-38.1,19.6-74,46.8-101.2,27.2-27.2,63.1-43.8,101.2-46.8h.4c1.1-.1,2.7-.2,4.6-.6h16.3M198.3,0h-22.6c-1.2.5-2.6.5-4.1.6C80.7,7.8,7.9,80.5.8,171.5c0,1.3-.3,2.7-.6,4.1v21.9c5.2,91.3,80.5,169.9,173,175.1l11.3.6c.6,0,1.2,0,1.8,0,12.1,0,23.1-7,28.2-17.4,5.7-11.7,3.7-24.9-4.8-34.8-8.3-9.6-9.9-22.8-4.4-34.2,5-10.3,15.7-17.2,28.1-17.3h37c54.6-.3,99.6-43.3,102.6-97.9,1.7-31.9-7.9-63.5-25.8-90.2C314.8,32.9,259.4,4.7,202,.6c-1.6-.1-3-.2-3.7-.6h0Z"/>
  <path class="st0" d="M169.1,98.1c0-14.4-11.7-26.1-26.1-26.1s-26.1,11.7-26.1,26.1,11.7,26.1,26.1,26.1,26.1-11.7,26.1-26.1ZM256.4,98.1c0-14.4-11.7-26.1-26.1-26.1s-26.1,11.7-26.1,26.1,11.7,26.1,26.1,26.1,26.1-11.7,26.1-26.1ZM116.7,167.9c0-14.4-11.7-26.1-26.1-26.1s-26.1,11.7-26.1,26.1,11.7,26.1,26.1,26.1,26.1-11.7,26.1-26.1ZM308.8,167.9c0-14.4-11.7-26.1-26.1-26.1s-26.1,11.7-26.1,26.1,11.7,26.1,26.1,26.1,26.1-11.7,26.1-26.1Z"/>
</svg>