<?xml version="1.0" encoding="UTF-8"?>
<svg id="Layer_1" xmlns="http://www.w3.org/2000/svg" version="1.1" viewBox="0 0 373.2 373.2">
  <!-- Generator: Adobe Illustrator 30.1.0, SVG Export Plug-In . SVG Version: 2.1.1 Build 136)  -->
  <defs>
    <style>
      .st0 {
        fill: #777;
      }

      .st1 {
        fill: none;
        stroke: #777;
        stroke-miterlimit: 10;
        stroke-width: 20px;
      }

      .st2 {
        display: none;
      }
    </style>
  </defs>
  <g id="Layer_7" class="st2">
    <rect y="0" width="373.2" height="373.2"/>
  </g>
  <g id="message">
    <line class="st1" x1="87.5" y1="150.6" x2="285.7" y2="150.6"/>
    <line class="st1" x1="87.5" y1="222.7" x2="285.7" y2="222.7"/>
    <g class="st2">
      <path class="st0" d="M186.6,25c43.2,0,83.7,16.8,114.3,47.3,30.5,30.5,47.3,71.1,47.3,114.3s-16.8,83.7-47.3,114.3c-30.5,30.5-71.1,47.3-114.3,47.3s-83.7-16.8-114.3-47.3c-30.5-30.5-47.3-71.1-47.3-114.3s16.8-83.7,47.3-114.3c30.5-30.5,71.1-47.3,114.3-47.3M186.6,0C83.5,0,0,83.5,0,186.6s83.5,186.6,186.6,186.6,186.6-83.5,186.6-186.6S289.7,0,186.6,0h0Z"/>
    </g>
    <path class="st0" d="M186.6,0C83.5,0,0,83.5,0,186.6s17.5,90.4,46.5,123.2L0,373.2l119.1-12.6c20.9,8.1,43.7,12.6,67.5,12.6,103.1,0,186.6-83.5,186.6-186.6S289.7,0,186.6,0ZM300.9,300.9c-30.5,30.5-71.1,47.3-114.3,47.3s-34.2-2.7-50.2-7.9c-4.7-1.5-9.3-3.3-13.8-5.2l-42.8,4.5-24,2.5,9.5-13.8,14.2-20.8c-2.4-2.2-4.8-4.4-7.1-6.7-3.8-3.8-7.3-7.7-10.7-11.7-23.8-28.8-36.7-64.7-36.7-102.5s16.8-83.8,47.3-114.3c30.5-30.5,71.1-47.3,114.3-47.3s83.8,16.8,114.3,47.3c30.5,30.5,47.3,71.1,47.3,114.3s-16.8,83.8-47.3,114.3Z"/>
  </g>
</svg>