<?xml version="1.0" encoding="UTF-8"?>
<svg id="Layer_1" xmlns="http://www.w3.org/2000/svg" xmlns:xlink="http://www.w3.org/1999/xlink" version="1.1" viewBox="0 0 373.2 373.2">
  <!-- Generator: Adobe Illustrator 30.1.0, SVG Export Plug-In . SVG Version: 2.1.1 Build 136)  -->
  <defs>
    <style>
      .st0, .st1, .st2, .st3, .st4 {
        fill: none;
      }

      .st1 {
        stroke-width: 20px;
      }

      .st1, .st2, .st3, .st4 {
        stroke-miterlimit: 10;
      }

      .st1, .st3 {
        stroke: #cb132c;
      }

      .st2 {
        stroke-width: 16.9px;
      }

      .st2, .st4 {
        stroke: #fff;
      }

      .st5 {
        fill: #777;
      }

      .st3 {
        stroke-width: 30px;
      }

      .st4 {
        stroke-width: 60px;
      }

      .st6 {
        fill: #cb132c;
      }

      .st7 {
        fill: #fff;
      }

      .st8 {
        display: none;
      }

      .st9 {
        clip-path: url(#clippath);
      }
    </style>
    <clipPath id="clippath">
      <rect class="st0" y="0" width="373.2" height="373.2"/>
    </clipPath>
  </defs>
  <g id="plus" class="st8">
    <rect class="st6" x="168.6" y="0" width="36" height="373.2"/>
    <rect class="st6" y="168.6" width="373.2" height="36"/>
  </g>
  <g id="Layer_7" class="st8">
    <rect y="0" width="373.2" height="373.2"/>
  </g>
  <g id="question" class="st8">
    <path class="st6" d="M146.3,274.7v-29.4c0-10.8.6-19.6,1.8-26.2,1.2-6.6,4.2-12.2,8.9-16.8,4.7-4.5,12-8.9,21.8-13.1l18.9-8.4c11.5-5.2,21.8-11,30.9-17.3,9.1-6.3,16.1-14.1,21-23.3,4.9-9.3,7.3-20.2,7.3-32.8,0-21-6.5-37.5-19.4-49.5-12.9-12.1-30.1-18.1-51.4-18.1s-38.8,5.9-51.4,17.6c-12.6,11.7-18.9,27.7-18.9,48h-45.1c0-21,4.8-39.3,14.4-55,9.6-15.7,23.1-28,40.4-37C142.8,4.5,163,0,186.1,0s42.8,4.4,60.3,13.1c17.5,8.7,31.2,21.1,41.2,37.2,10,16.1,14.9,35.1,14.9,57.1s-6.7,45.8-20.2,62.9-31,30.8-52.7,40.9l-24.1,11.5c-6.6,3.1-10.9,6.3-12.8,9.4-1.9,3.1-2.9,8.6-2.9,16.3v26.2h-43.5,0ZM136.8,373.2v-62.4h64v62.4h-64Z"/>
  </g>
  <g id="about" class="st8">
    <path class="st7" d="M169.6,111.7v-34.3h33.9v34.3h-33.9ZM172.8,295.8v-154.5h28v154.5h-28Z"/>
    <path class="st7" d="M186.6,30c41.8,0,81.2,16.3,110.7,45.9,29.6,29.6,45.9,68.9,45.9,110.7s-16.3,81.2-45.9,110.7c-29.6,29.6-68.9,45.9-110.7,45.9s-81.2-16.3-110.7-45.9c-29.6-29.6-45.9-68.9-45.9-110.7s16.3-81.2,45.9-110.7c29.6-29.6,68.9-45.9,110.7-45.9M186.6,0C83.6,0,0,83.6,0,186.6s83.6,186.6,186.6,186.6,186.6-83.6,186.6-186.6S289.7,0,186.6,0h0Z"/>
  </g>
  <g id="gallery" class="st8">
    <g class="st8">
      <path class="st7" d="M343.2,30v313.2H30V30h313.2M373.2,0H0v373.2h373.2V0h0Z"/>
    </g>
    <polyline class="st3" points="54.4 306.4 122 230.4 168.4 282.3 277.3 157.4 349.6 238.1"/>
    <circle class="st6" cx="116.6" cy="130" r="32"/>
    <path class="st6" d="M186.6,31c41.6,0,80.7,16.2,110.1,45.6,29.4,29.4,45.6,68.5,45.6,110.1s-16.2,80.7-45.6,110.1-68.5,45.6-110.1,45.6-80.7-16.2-110.1-45.6-45.6-68.5-45.6-110.1,16.2-80.7,45.6-110.1c29.4-29.4,68.5-45.6,110.1-45.6M186.6,0C83.6,0,0,83.6,0,186.6s83.6,186.6,186.6,186.6,186.6-83.6,186.6-186.6S289.7,0,186.6,0h0Z"/>
  </g>
  <g id="message" class="st8">
    <line class="st2" x1="87.6" y1="150.6" x2="285.7" y2="150.6"/>
    <line class="st2" x1="87.6" y1="222.7" x2="285.7" y2="222.7"/>
    <path class="st7" d="M186.6,30c41.8,0,81.2,16.3,110.7,45.9,29.6,29.6,45.9,68.9,45.9,110.7s-16.3,81.2-45.9,110.7c-29.6,29.6-68.9,45.9-110.7,45.9s-42.5-4.3-62.1-12.8l-7.7-3.3-8.3,1.1-49.6,6.7,8.4-13.5,12-19.4-15.5-16.8c-24.1-26-33.9-54.5-33.9-98.6s16.3-81.2,45.9-110.7c29.6-29.6,68.9-45.9,110.7-45.9M186.6,0C83.5,0,0,83.5,0,186.6s11,85.7,41.9,119L0,373.2l112.6-15.3c22.7,9.8,47.7,15.3,74,15.3,103.1,0,186.6-83.6,186.6-186.6S289.7,0,186.6,0h0Z"/>
  </g>
  <g id="carrot" class="st8">
    <g class="st9">
      <polyline class="st4" points="30.1 17.6 186.6 300.8 346.2 17.6"/>
    </g>
  </g>
  <g class="st8">
    <path class="st5" d="M200.2.9c1.1.7,3.7,1.1,6.5,1.4,96.8,10.6,168,94.7,164.6,190.5-3.5,96.4-80.7,174.3-177,178.6C97.8,375.6,12.9,304.2,2.2,206.8c-.3-2.8-.7-5.4-1.4-6.5v-28C9.9,80,79.9,10.1,172.2.9h28ZM114,106.6L196.1,28.9c-45.5-3.5-87.1,13.2-119.5,43.5l14.9,62.5c6.7-10.6,13.1-19.2,22.5-28.3ZM223.8,85.3l103.4,30.6c-20.2-41.5-56.2-69.4-97.5-81.4l-46.1,43.7c14.3,1.3,26.2,2.9,40.1,7.1ZM93.1,242.1c-5.4-13.3-9.1-21.9-12.1-33.3l-26.2-109.9c-25.2,37.2-32.4,82-22,125.4l60.3,17.9ZM266.3,186.3c0-44.3-35.9-80.1-80.1-80.1s-80.1,35.9-80.1,80.1,35.9,80.1,80.1,80.1,80.1-35.9,80.1-80.1ZM317.5,273.6c25.9-37.9,32-82.3,22.2-125.2l-60.8-18.1c6,13.5,10.2,23.5,13,36.1l25.6,107.1ZM176.6,343.5c46.4,3.7,87.1-13.6,119.2-43.2l-14.9-62.6c-6.9,11-13.6,20-23,28.6l-81.3,77.2ZM188,294.8l-31.1-5-111.8-33.1c20.1,41.4,55.4,68.7,97.3,81.6l45.7-43.4Z"/>
  </g>
  <g>
    <path class="st6" d="M186.6,25c43.2,0,83.7,16.8,114.3,47.3,30.5,30.5,47.3,71.1,47.3,114.3s-16.8,83.7-47.3,114.3c-30.5,30.5-71.1,47.3-114.3,47.3s-83.7-16.8-114.3-47.3c-30.5-30.5-47.3-71.1-47.3-114.3s16.8-83.7,47.3-114.3c30.5-30.5,71.1-47.3,114.3-47.3M186.6,0C83.5,0,0,83.5,0,186.6s83.5,186.6,186.6,186.6,186.6-83.5,186.6-186.6S289.7,0,186.6,0h0Z"/>
    <path class="st6" d="M186.6,105c45,0,81.6,36.6,81.6,81.6s-36.6,81.6-81.6,81.6-81.6-36.6-81.6-81.6,36.6-81.6,81.6-81.6M186.6,87.8c-51.2-1.1-95.5,41.2-95.5,98.8s37.9,95.4,95.5,95.4,95.5-37.8,95.5-95.4-37.9-98.8-95.5-98.8h0Z"/>
    <line class="st1" x1="225.5" y1="16.9" x2="84.3" y2="158.7"/>
    <line class="st1" x1="59.1" y1="68.1" x2="111.3" y2="261.2"/>
    <line class="st1" x1="20.2" y1="237.8" x2="213.6" y2="289.1"/>
    <line class="st1" x1="147.7" y1="356.3" x2="288.9" y2="214.5"/>
    <line class="st1" x1="314.1" y1="305.1" x2="261.9" y2="112"/>
    <line class="st1" x1="353" y1="135.4" x2="159.6" y2="84.1"/>
  </g>
</svg>