<?xml version="1.0" encoding="UTF-8"?>
<svg id="Layer_1" xmlns="http://www.w3.org/2000/svg" version="1.1" viewBox="0 0 373.2 373.2">
  <!-- Generator: Adobe Illustrator 30.1.0, SVG Export Plug-In . SVG Version: 2.1.1 Build 136)  -->
  <defs>
    <style>
      .st0 {
        fill: #777;
      }

      .st1 {
        fill: none;
        stroke: #777;
        stroke-miterlimit: 10;
        stroke-width: 16.9px;
      }

      .st2 {
        display: none;
      }
    </style>
  </defs>
  <g id="Layer_7" class="st2">
    <rect y="0" width="373.2" height="373.2"/>
  </g>
  <g id="message">
    <line class="st1" x1="87.6" y1="150.6" x2="285.7" y2="150.6"/>
    <line class="st1" x1="87.6" y1="222.7" x2="285.7" y2="222.7"/>
    <path class="st0" d="M186.6,30c41.8,0,81.2,16.3,110.7,45.9,29.6,29.6,45.9,68.9,45.9,110.7s-16.3,81.2-45.9,110.7c-29.6,29.6-68.9,45.9-110.7,45.9s-42.5-4.3-62.1-12.8l-7.7-3.3-8.3,1.1-49.6,6.7,8.4-13.5,12-19.4-15.5-16.8c-24.1-26-33.9-54.5-33.9-98.6s16.3-81.2,45.9-110.7c29.6-29.6,68.9-45.9,110.7-45.9M186.6,0C83.5,0,0,83.5,0,186.6s11,85.7,41.9,119L0,373.2l112.6-15.3c22.7,9.8,47.7,15.3,74,15.3,103.1,0,186.6-83.6,186.6-186.6S289.7,0,186.6,0h0Z"/>
  </g>
</svg>