<?xml version="1.0" encoding="UTF-8"?>
<svg id="Gallery" xmlns="http://www.w3.org/2000/svg" version="1.1" viewBox="0 0 373.2 373.2">
  <!-- Generator: Adobe Illustrator 30.1.0, SVG Export Plug-In . SVG Version: 2.1.1 Build 136)  -->
  <defs>
    <style>
      .st0 {
        fill: #777;
      }

      .st1 {
        fill: none;
        stroke: #777;
        stroke-miterlimit: 10;
        stroke-width: 30px;
      }

      .st2 {
        fill: #fff;
      }

      .st3 {
        display: none;
      }
    </style>
  </defs>
  <g id="Layer_7" class="st3">
    <rect y="0" width="373.2" height="373.2"/>
  </g>
  <g id="gallery">
    <g class="st3">
      <path class="st2" d="M343.2,30v313.2H30V30h313.2M373.2,0H0v373.2h373.2V0h0Z"/>
    </g>
    <polyline class="st1" points="54.4 306.4 122 230.4 168.4 282.3 277.3 157.4 349.6 238.1"/>
    <circle class="st0" cx="116.6" cy="130" r="32"/>
    <path class="st0" d="M186.6,31c41.6,0,80.7,16.2,110.1,45.6,29.4,29.4,45.6,68.5,45.6,110.1s-16.2,80.7-45.6,110.1-68.5,45.6-110.1,45.6-80.7-16.2-110.1-45.6-45.6-68.5-45.6-110.1,16.2-80.7,45.6-110.1c29.4-29.4,68.5-45.6,110.1-45.6M186.6,0C83.6,0,0,83.6,0,186.6s83.6,186.6,186.6,186.6,186.6-83.6,186.6-186.6S289.7,0,186.6,0h0Z"/>
  </g>
</svg>