<?xml version="1.0" encoding="UTF-8"?>
<svg id="Gallery" xmlns="http://www.w3.org/2000/svg" version="1.1" viewBox="0 0 373.2 373.2">
  <!-- Generator: Adobe Illustrator 30.1.0, SVG Export Plug-In . SVG Version: 2.1.1 Build 136)  -->
  <defs>
    <style>
      .st0, .st1 {
        fill: #777;
      }

      .st2 {
        opacity: .3;
      }

      .st2, .st3, .st1, .st4 {
        display: none;
      }

      .st5 {
        stroke-width: 20px;
      }

      .st5, .st3 {
        fill: none;
        stroke: #777;
        stroke-miterlimit: 10;
      }

      .st6 {
        fill: #fff;
      }

      .st3 {
        stroke-width: 30px;
      }
    </style>
  </defs>
  <g id="Layer_7" class="st4">
    <rect y="0" width="373.2" height="373.2"/>
  </g>
  <g id="gallery">
    <g class="st4">
      <path class="st6" d="M343.2,30v313.2H30V30h313.2M373.2,0H0v373.2h373.2V0h0Z"/>
    </g>
    <polyline class="st3" points="54.4 306.4 122 230.4 168.4 282.3 277.3 157.4 349.6 238.1"/>
    <circle class="st1" cx="116.6" cy="130" r="32"/>
    <path class="st1" d="M186.6,31c41.6,0,80.7,16.2,110.1,45.6,29.4,29.4,45.6,68.5,45.6,110.1s-16.2,80.7-45.6,110.1-68.5,45.6-110.1,45.6-80.7-16.2-110.1-45.6-45.6-68.5-45.6-110.1,16.2-80.7,45.6-110.1c29.4-29.4,68.5-45.6,110.1-45.6M186.6,0C83.6,0,0,83.6,0,186.6s83.6,186.6,186.6,186.6,186.6-83.6,186.6-186.6S289.7,0,186.6,0h0Z"/>
  </g>
  <g id="lySmyp.tif" class="st2">
    <path class="st0" d="M200.2.9c1.1.7,3.7,1.1,6.5,1.4,96.8,10.6,168,94.7,164.6,190.5-3.5,96.4-80.7,174.3-177,178.6C97.8,375.6,12.9,304.2,2.2,206.8c-.3-2.8-.7-5.4-1.4-6.5v-28C9.9,80,79.9,10.1,172.2.9h28ZM114,106.6L196.1,28.9c-45.5-3.5-87.1,13.2-119.5,43.5l14.9,62.5c6.7-10.6,13.1-19.2,22.5-28.3ZM223.8,85.3l103.4,30.6c-20.2-41.5-56.2-69.4-97.5-81.4l-46.1,43.7c14.3,1.3,26.2,2.9,40.1,7.1ZM93.1,242.1c-5.4-13.3-9.1-21.9-12.1-33.3l-26.2-109.9c-25.2,37.2-32.4,82-22,125.4l60.3,17.9ZM266.3,186.3c0-44.3-35.9-80.1-80.1-80.1s-80.1,35.9-80.1,80.1,35.9,80.1,80.1,80.1,80.1-35.9,80.1-80.1ZM317.5,273.6c25.9-37.9,32-82.3,22.2-125.2l-60.8-18.1c6,13.5,10.2,23.5,13,36.1l25.6,107.1ZM176.6,343.5c46.4,3.7,87.1-13.6,119.2-43.2l-14.9-62.6c-6.9,11-13.6,20-23,28.6l-81.3,77.2ZM188,294.8l-31.1-5-111.8-33.1c20.1,41.4,55.4,68.7,97.3,81.6l45.7-43.4Z"/>
  </g>
  <g>
    <path class="st0" d="M186.6,25c43.2,0,83.7,16.8,114.3,47.3,30.5,30.5,47.3,71.1,47.3,114.3s-16.8,83.7-47.3,114.3c-30.5,30.5-71.1,47.3-114.3,47.3s-83.7-16.8-114.3-47.3c-30.5-30.5-47.3-71.1-47.3-114.3s16.8-83.7,47.3-114.3c30.5-30.5,71.1-47.3,114.3-47.3M186.6,0C83.5,0,0,83.5,0,186.6s83.5,186.6,186.6,186.6,186.6-83.5,186.6-186.6S289.7,0,186.6,0h0Z"/>
    <path class="st0" d="M186.6,105c45,0,81.6,36.6,81.6,81.6s-36.6,81.6-81.6,81.6-81.6-36.6-81.6-81.6,36.6-81.6,81.6-81.6M186.6,87.8c-51.2-1.1-95.5,41.2-95.5,98.8s37.9,95.4,95.5,95.4,95.5-37.8,95.5-95.4-37.9-98.8-95.5-98.8h0Z"/>
    <line class="st5" x1="225.5" y1="16.9" x2="84.3" y2="158.7"/>
    <line class="st5" x1="59.1" y1="68.1" x2="111.3" y2="261.2"/>
    <line class="st5" x1="20.2" y1="237.8" x2="213.6" y2="289.1"/>
    <line class="st5" x1="147.7" y1="356.3" x2="288.9" y2="214.5"/>
    <line class="st5" x1="314.1" y1="305.1" x2="261.9" y2="112"/>
    <line class="st5" x1="353" y1="135.4" x2="159.6" y2="84.1"/>
  </g>
</svg>