<?xml version="1.0" encoding="UTF-8"?>
<svg id="Layer_2" data-name="Layer 2" xmlns="http://www.w3.org/2000/svg" viewBox="0 0 2677.74 721.39">
  <defs>
    <style>
      .cls-1 {
        fill: #cb132c;
      }

      .cls-2 {
        fill: #fff;
      }
    </style>
  </defs>
  <g id="Layer_6" data-name="Layer 6">
    <g>
      <g>
        <path class="cls-1" d="M509.93,716.34c-3.49,0-6.29-.11-8.31-.23-52.23-3.14-97.55-22.93-131.05-57.24-28.91-29.61-46.87-67.81-50.57-107.56-5.95-63.95,14.12-120.08,59.65-166.83,35.77-36.74,79.52-60.28,114.68-79.19,8.04-4.32,15.62-8.41,22.07-12.11,24.62-14.15,43.91-31.37,55.79-49.78,14.15-21.94,18.63-46.27,13.69-74.4-1.19-6.81-6.83-27.39-18.39-40.75-27.84-32.15-51.63-38.24-85.79-38.24-15.64,0-39.54,6.52-59.72,24.81-22.58,20.48-34.04,49.8-34.04,87.14,0,93.07-38.73,144.82-71.21,171.84-48.14,40.04-102.04,44.37-122.97,44.37-43.26,0-89.64-17.49-124.08-46.78C37.89,344.34,0,293.98,0,207.65,0,164.12.03,41.45.07,18.42l90,.16c-.04,22.98-.07,145.56-.07,189.08s12.78,73.73,37.99,95.18c21.98,18.7,49.16,25.33,65.76,25.33,17.93,0,44.54-6.19,65.42-23.56,25.72-21.4,38.77-55.93,38.77-102.65,0-79.47,34.57-127.51,63.58-153.81C394.76,18,439.68,0,481.69,0c19.88,0,46.32,1.36,74.62,11.97,29.44,11.04,55.35,29.8,79.21,57.35,28.94,33.41,37.57,75.92,39,84.1,8.92,50.78-.07,97.46-26.7,138.75-19.9,30.85-49.02,57.44-86.55,79.02-7.55,4.34-15.69,8.72-24.3,13.35-29.72,15.99-66.71,35.89-92.83,62.71-27.04,27.77-38.01,58.19-34.52,95.72,1.77,19,11.01,38.33,25.35,53.02,17.86,18.29,42.11,28.48,72.06,30.28.41.02,42.09,2.18,72.1-26.08,21.35-20.11,32.18-52.03,32.18-94.89h90c0,35.42-5.57,67.39-16.57,95.02-10.15,25.5-24.92,47.5-43.91,65.38-21.62,20.36-48,34.94-78.39,43.31-22.16,6.11-41.01,7.32-52.5,7.32Z"/>
        <rect class="cls-1" x="148.75" y="332.18" width="90" height="389.21"/>
      </g>
      <g>
        <path class="cls-2" d="M873.15,332.33v-113.43l-101.83-187.34h43.83l84.65,164.56h-14.61l84.65-164.56h42.97l-100.97,187.34v113.43h-38.67Z"/>
        <path class="cls-2" d="M1056.18,332.33V31.56h187.34v31.8h-148.67v101.83h135.78v30.94h-135.78v104.41h148.67v31.8h-187.34Z"/>
        <path class="cls-2" d="M1291.21,332.33V31.56h118.59c23.77,0,43.18,3.94,58.22,11.82,15.04,7.88,26.14,18.48,33.3,31.8,7.16,13.32,10.74,28.43,10.74,45.33,0,15.19-3.3,29.15-9.88,41.89-6.59,12.75-16.62,23.13-30.08,31.15,13.75,6.87,23.7,16.54,29.86,29,6.16,12.46,9.81,27.28,10.96,44.47l3.44,65.31h-38.24l-3.44-61.87c-.86-14.32-3.3-25.92-7.3-34.8-4.01-8.88-10.67-15.39-19.98-19.55-9.31-4.15-22.28-6.23-38.88-6.23h-78.63v122.46h-38.67ZM1329.88,178.51h77.34c22.62,0,39.17-5.37,49.63-16.11,10.45-10.74,15.68-24.71,15.68-41.89s-5.09-31.29-15.25-41.46c-10.17-10.16-26.85-15.25-50.06-15.25h-77.34v114.72Z"/>
        <path class="cls-2" d="M1668.89,337.49c-15.19,0-29.65-2.01-43.4-6.02-13.75-4.01-26.07-10.02-36.95-18.05-10.89-8.02-19.7-18.26-26.42-30.72-6.73-12.46-10.53-27.14-11.39-44.04h37.81c1.43,15.47,5.87,28,13.32,37.6,7.45,9.6,17.11,16.62,29,21.05,11.88,4.44,24.71,6.66,38.46,6.66,12.89,0,24.77-1.86,35.66-5.59,10.88-3.72,19.55-9.67,26-17.83,6.44-8.16,9.67-18.69,9.67-31.58,0-11.17-3.22-21.05-9.67-29.65-6.45-8.59-18.26-14.46-35.45-17.62l-60.15-11.17c-21.77-4.01-39.39-12.96-52.85-26.85-13.47-13.89-20.19-30.72-20.19-50.49,0-18.33,4.79-33.94,14.39-46.83,9.59-12.89,22.34-22.77,38.24-29.65,15.9-6.87,33.01-10.31,51.34-10.31,19.48,0,36.95,3.37,52.42,10.1,15.47,6.73,28,16.76,37.6,30.08,9.59,13.32,15.25,29.86,16.97,49.63h-38.24c-1.44-13.17-5.23-23.85-11.39-32.01-6.16-8.16-14.11-14.25-23.85-18.26-9.74-4.01-20.77-6.02-33.08-6.02s-23.06,1.87-33.08,5.59c-10.03,3.73-18.19,9.31-24.49,16.76-6.3,7.45-9.45,16.9-9.45,28.36s4.3,21.56,12.89,29.43c8.59,7.88,20.05,13.25,34.37,16.11l56.72,10.31c24.34,4.59,42.89,13.75,55.64,27.5,12.74,13.75,19.12,31.51,19.12,53.28,0,15.47-3.08,28.79-9.24,39.96-6.16,11.17-14.39,20.48-24.71,27.93-10.31,7.45-21.99,13.04-35.02,16.76-13.04,3.72-26.57,5.59-40.6,5.59Z"/>
        <path class="cls-2" d="M1827,332.33V31.56h38.67v300.77h-38.67ZM1858.8,194.84v-31.37h169.29v31.37h-169.29ZM2019.06,332.33V31.56h38.67v300.77h-38.67Z"/>
        <path class="cls-2" d="M2250.65,337.49c-29.51,0-55.43-6.51-77.77-19.55-22.34-13.03-39.74-31.22-52.2-54.57-12.46-23.34-18.69-50.49-18.69-81.42s6.23-57.64,18.69-80.99c12.46-23.34,29.86-41.6,52.2-54.78,22.34-13.17,48.26-19.77,77.77-19.77s55.78,6.59,77.99,19.77c22.19,13.18,39.53,31.44,51.99,54.78,12.46,23.35,18.69,50.35,18.69,80.99s-6.23,58.08-18.69,81.42c-12.46,23.35-29.79,41.54-51.99,54.57-22.2,13.04-48.2,19.55-77.99,19.55ZM2250.65,303.11c21.77,0,40.82-4.79,57.15-14.39,16.33-9.59,29.07-23.48,38.24-41.68,9.16-18.19,13.75-39.89,13.75-65.09s-4.58-46.83-13.75-64.88c-9.17-18.05-21.91-31.94-38.24-41.68-16.33-9.73-35.38-14.61-57.15-14.61s-40.46,4.87-56.93,14.61c-16.47,9.74-29.22,23.63-38.24,41.68-9.02,18.05-13.53,39.68-13.53,64.88s4.51,46.91,13.53,65.09c9.02,18.19,21.77,32.08,38.24,41.68,16.47,9.6,35.45,14.39,56.93,14.39Z"/>
        <path class="cls-2" d="M2519.62,332.33l-112.57-300.77h41.68l93.67,259.95,94.53-259.95h40.82l-112.57,300.77h-45.54Z"/>
        <path class="cls-2" d="M886.46,707.54c-15.19,0-29.65-2.01-43.4-6.02-13.75-4.01-26.07-10.02-36.95-18.05-10.89-8.02-19.7-18.26-26.42-30.72-6.73-12.46-10.53-27.14-11.39-44.04h37.81c1.43,15.47,5.87,28,13.32,37.6,7.45,9.6,17.11,16.62,29,21.05,11.88,4.44,24.71,6.66,38.46,6.66,12.89,0,24.77-1.86,35.66-5.59,10.88-3.72,19.55-9.67,26-17.83,6.44-8.16,9.67-18.69,9.67-31.58,0-11.17-3.22-21.05-9.67-29.65-6.45-8.59-18.26-14.46-35.45-17.62l-60.15-11.17c-21.77-4.01-39.39-12.96-52.85-26.85-13.47-13.89-20.19-30.72-20.19-50.49,0-18.33,4.79-33.94,14.39-46.83,9.59-12.89,22.34-22.77,38.24-29.65,15.9-6.88,33.01-10.31,51.34-10.31,19.48,0,36.95,3.37,52.42,10.1,15.47,6.73,28,16.76,37.6,30.08,9.59,13.32,15.25,29.86,16.97,49.63h-38.24c-1.44-13.17-5.23-23.85-11.39-32.01-6.16-8.16-14.11-14.25-23.85-18.26-9.74-4.01-20.77-6.01-33.08-6.01s-23.06,1.87-33.08,5.59c-10.03,3.73-18.19,9.31-24.49,16.76-6.3,7.45-9.45,16.9-9.45,28.36s4.3,21.56,12.89,29.43c8.59,7.88,20.05,13.25,34.37,16.11l56.72,10.31c24.34,4.59,42.89,13.75,55.64,27.5,12.74,13.75,19.12,31.51,19.12,53.28,0,15.47-3.08,28.79-9.24,39.96-6.16,11.17-14.39,20.48-24.71,27.93-10.31,7.45-21.99,13.04-35.02,16.76-13.04,3.72-26.57,5.59-40.6,5.59Z"/>
        <path class="cls-2" d="M1104.31,702.38v-268.97h-89.37v-31.8h217.41v31.8h-89.37v268.97h-38.67Z"/>
        <path class="cls-2" d="M1385.31,707.54c-20.91,0-39.82-4.16-56.72-12.46-16.91-8.3-30.37-21.12-40.39-38.46-10.03-17.33-15.04-39.31-15.04-65.95v-189.05h38.67v189.48c0,28.65,6.8,49.41,20.41,62.3,13.6,12.89,31.58,19.33,53.92,19.33s39.81-6.44,53.28-19.33c13.46-12.89,20.19-33.66,20.19-62.3v-189.48h38.67v189.05c0,26.64-5.09,48.63-15.25,65.95-10.17,17.33-23.78,30.15-40.82,38.46-17.05,8.3-36.03,12.46-56.93,12.46Z"/>
        <path class="cls-2" d="M1551.59,702.38v-300.77h93.24c35.51,0,64.67,6.09,87.44,18.26,22.77,12.18,39.67,29.58,50.7,52.21,11.02,22.63,16.54,49.41,16.54,80.35s-5.52,57.58-16.54,79.92c-11.03,22.34-27.93,39.6-50.7,51.78-22.77,12.18-51.92,18.26-87.44,18.26h-93.24ZM1590.26,669.73h53.71c28.64,0,51.35-4.65,68.1-13.96,16.76-9.3,28.85-22.77,36.31-40.39,7.45-17.62,11.17-38.6,11.17-62.95s-3.73-45.4-11.17-63.16c-7.45-17.76-19.55-31.43-36.31-41.03-16.76-9.59-39.46-14.39-68.1-14.39h-53.71v235.89Z"/>
        <path class="cls-2" d="M1847.2,702.38v-300.77h38.67v300.77h-38.67Z"/>
        <path class="cls-2" d="M2080.08,707.54c-29.51,0-55.43-6.51-77.77-19.55-22.34-13.03-39.74-31.22-52.2-54.57-12.46-23.34-18.69-50.49-18.69-81.42s6.23-57.64,18.69-80.99c12.46-23.34,29.86-41.6,52.2-54.78,22.34-13.17,48.26-19.76,77.77-19.76s55.78,6.59,77.99,19.76c22.19,13.18,39.53,31.44,51.99,54.78,12.46,23.35,18.69,50.34,18.69,80.99s-6.23,58.08-18.69,81.42c-12.46,23.35-29.79,41.54-51.99,54.57-22.2,13.04-48.2,19.55-77.99,19.55ZM2080.08,673.16c21.77,0,40.82-4.79,57.15-14.39,16.33-9.59,29.07-23.48,38.24-41.68,9.16-18.19,13.75-39.89,13.75-65.1s-4.58-46.83-13.75-64.88c-9.17-18.05-21.91-31.94-38.24-41.68-16.33-9.73-35.38-14.61-57.15-14.61s-40.46,4.87-56.93,14.61c-16.47,9.74-29.22,23.63-38.24,41.68s-13.53,39.68-13.53,64.88,4.51,46.91,13.53,65.1c9.02,18.19,21.77,32.08,38.24,41.68,16.47,9.6,35.45,14.39,56.93,14.39Z"/>
      </g>
    </g>
  </g>
</svg>