<?xml version="1.0" encoding="UTF-8"?>
<svg id="Layer_2" data-name="Layer 2" xmlns="http://www.w3.org/2000/svg" viewBox="0 0 691.3 716.39">
  <defs>
    <style>
      .cls-1 {
        fill: none;
        stroke: #cb132c;
        stroke-miterlimit: 10;
        stroke-width: 80px;
      }
    </style>
  </defs>
  <g id="Layer_2-2" data-name="Layer 2">
    <g>
      <path class="cls-1" d="M40.07,13.5c-.04,23.17-.07,147.54-.07,189.16,0,124.53,93.97,165.51,148.75,165.51s149.19-33.49,149.19-171.21c0-112,83.9-156.96,138.75-156.96,38.17,0,78.74,6.36,119.81,53.78,19.99,23.08,27.22,54,28.7,62.42,15.2,86.57-38.59,140.64-91.36,170.98-61.3,35.25-186.13,84.78-174.03,214.96,5.03,54.1,49.69,118.65,139.51,124.05,33.02,1.98,151.98-12.13,151.98-165.89"/>
      <line class="cls-1" x1="188.75" y1="716.39" x2="188.75" y2="347.62"/>
    </g>
  </g>
</svg>