<?xml version="1.0" encoding="UTF-8"?>
<svg id="Layer_1" xmlns="http://www.w3.org/2000/svg" version="1.1" viewBox="0 0 373.2 373.2">
  <!-- Generator: Adobe Illustrator 30.1.0, SVG Export Plug-In . SVG Version: 2.1.1 Build 136)  -->
  <defs>
    <style>
      .st0, .st1 {
        fill: #777;
      }

      .st1, .st2 {
        display: none;
      }
    </style>
  </defs>
  <g id="Layer_11" data-name="Layer_1">
    <g id="Layer_7" class="st2">
      <rect y="0" width="373.2" height="373.2"/>
    </g>
  </g>
  <path class="st1" d="M186.6,30c41.8,0,81.2,16.3,110.7,45.9,29.6,29.6,45.9,68.9,45.9,110.7s-16.3,81.2-45.9,110.7c-29.6,29.6-68.9,45.9-110.7,45.9s-81.2-16.3-110.7-45.9c-29.6-29.6-45.9-68.9-45.9-110.7s16.3-81.2,45.9-110.7c29.6-29.6,68.9-45.9,110.7-45.9M186.6,0C83.6,0,0,83.6,0,186.6s83.6,186.6,186.6,186.6,186.6-83.6,186.6-186.6S289.7,0,186.6,0h0Z"/>
  <g id="Layer_2">
    <circle class="st0" cx="186.8" cy="96" r="23"/>
    <circle class="st0" cx="186.6" cy="186.6" r="23"/>
    <circle class="st0" cx="186.6" cy="277.2" r="23"/>
  </g>
  <path class="st0" d="M186.6,25c43.2,0,83.7,16.8,114.3,47.3,30.5,30.5,47.3,71.1,47.3,114.3s-16.8,83.7-47.3,114.3c-30.5,30.5-71.1,47.3-114.3,47.3s-83.7-16.8-114.3-47.3c-30.5-30.5-47.3-71.1-47.3-114.3s16.8-83.7,47.3-114.3c30.5-30.5,71.1-47.3,114.3-47.3M186.6,0C83.5,0,0,83.5,0,186.6s83.5,186.6,186.6,186.6,186.6-83.5,186.6-186.6S289.7,0,186.6,0h0Z"/>
</svg>