<?xml version="1.0" encoding="UTF-8"?>
<svg id="Layer_2" data-name="Layer 2" xmlns="http://www.w3.org/2000/svg" viewBox="0 0 828.39 828.39">
  <defs>
    <style>
      .cls-1 {
        fill: none;
        stroke: #cb132c;
        stroke-miterlimit: 10;
        stroke-width: 79.9px;
      }
    </style>
  </defs>
  <g id="Layer_2-2" data-name="Layer 2">
    <g>
      <rect width="828.39" height="828.39"/>
      <path class="cls-1" d="M109,63.19c-.04,23.14-.07,147.35-.07,188.91,0,124.37,93.85,165.3,148.56,165.3s149-33.45,149-170.99c0-111.86,83.79-156.76,138.57-156.76,38.12,0,78.64,6.35,119.65,53.71,19.96,23.05,27.18,53.93,28.66,62.34,15.18,86.46-38.55,140.46-91.25,170.76-61.22,35.2-185.9,84.67-173.8,214.68,5.03,54.03,49.62,118.5,139.34,123.89,32.97,1.98,151.79-12.12,151.79-165.67"/>
      <line class="cls-1" x1="257.49" y1="765.19" x2="257.49" y2="396.89"/>
    </g>
  </g>
</svg>